<svg width="32.000000" height="32.000000" viewBox="0 0 32 32" fill="none" xmlns="http://www.w3.org/2000/svg" xmlns:xlink="http://www.w3.org/1999/xlink">
	<desc>
			Created with Pixso.
	</desc>
	<defs/>
	<rect id="ShoppingCartSimple" width="32.000000" height="32.000000" fill="#FFFFFF" fill-opacity="0"/>
	<path id="Vector" d="M12 27C12 28.1 11.1 29 10 29C8.89 29 8 28.1 8 27C8 25.89 8.89 25 10 25C11.1 25 12 25.89 12 27Z" fill="#FFFFFF" fill-opacity="1.000000" fill-rule="evenodd"/>
	<path id="Vector" d="M25 27C25 28.1 24.1 29 23 29C21.89 29 21 28.1 21 27C21 25.89 21.89 25 23 25C24.1 25 25 25.89 25 27Z" fill="#FFFFFF" fill-opacity="1.000000" fill-rule="evenodd"/>
	<path id="Vector" d="M5.28 9L27.71 9L24.41 20.55C24.29 20.96 24.04 21.33 23.69 21.6C23.34 21.86 22.92 22 22.48 22L10.51 22C10.07 22 9.65 21.86 9.3 21.6C8.95 21.33 8.7 20.96 8.58 20.55L4.06 4.72C4 4.51 3.87 4.33 3.7 4.2C3.52 4.07 3.31 3.99 3.1 4L1 4" stroke="#FFFFFF" stroke-opacity="1.000000" stroke-width="2.000000" stroke-linejoin="round" stroke-linecap="round"/>
</svg>
