<svg width="16.000000" height="16.000000" viewBox="0 0 16 16" fill="none" xmlns="http://www.w3.org/2000/svg" xmlns:xlink="http://www.w3.org/1999/xlink">
	<desc>
			Created with Pixso.
	</desc>
	<defs>
		<clipPath id="clip5_12058">
			<rect id="Facebook" width="16.000000" height="16.000000" fill="white" fill-opacity="0"/>
		</clipPath>
	</defs>
	<rect id="Facebook" width="16.000000" height="16.000000" fill="#FFFFFF" fill-opacity="0"/>
	<g clip-path="url(#clip5_12058)">
		<path id="Vector" d="M8 0C12.41 0 16 3.58 16 8C16 12.41 12.41 16 8 16C3.58 16 0 12.41 0 8C0 3.58 3.58 0 8 0Z" fill="#FFFFFF" fill-opacity="1.000000" fill-rule="evenodd"/>
		<path id="Vector" d="M9.04 15.93L9.04 9.75L10.78 9.75L11.01 7.57L9.04 7.57L9.04 6.48C9.04 5.92 9.09 5.61 9.91 5.61L11 5.61L11 3.44L9.25 3.44C7.16 3.44 6.42 4.49 6.42 6.27L6.42 7.57L5.12 7.57L5.12 9.75L6.42 9.75L6.42 15.84C6.93 15.94 7.46 16 8 16C8.34 16 8.69 15.97 9.04 15.93Z" fill="#1B6392" fill-opacity="1.000000" fill-rule="nonzero"/>
	</g>
</svg>
