<svg width="16.000000" height="16.000000" viewBox="0 0 16 16" fill="none" xmlns="http://www.w3.org/2000/svg" xmlns:xlink="http://www.w3.org/1999/xlink">
	<desc>
			Created with Pixso.
	</desc>
	<defs>
		<clipPath id="clip5_12069">
			<rect id="Instagram" width="16.000000" height="16.000000" fill="white" fill-opacity="0"/>
		</clipPath>
	</defs>
	<rect id="Instagram" width="16.000000" height="16.000000" fill="#FFFFFF" fill-opacity="0"/>
	<g clip-path="url(#clip5_12069)">
		<path id="Vector" d="M5.6 8C5.6 6.67 6.67 5.59 8 5.59C9.32 5.59 10.4 6.67 10.4 8C10.4 9.32 9.32 10.4 8 10.4C6.67 10.4 5.6 9.32 5.6 8ZM4.3 8C4.3 10.04 5.95 11.69 8 11.69C10.04 11.69 11.69 10.04 11.69 8C11.69 5.95 10.04 4.3 8 4.3C5.95 4.3 4.3 5.95 4.3 8L4.3 8ZM10.98 4.15C10.98 4.32 11.03 4.49 11.12 4.63C11.22 4.77 11.35 4.88 11.51 4.95C11.67 5.02 11.84 5.03 12.01 5C12.17 4.97 12.33 4.88 12.45 4.76C12.57 4.64 12.65 4.49 12.69 4.32C12.72 4.15 12.7 3.98 12.64 3.82C12.57 3.66 12.46 3.53 12.32 3.43C12.18 3.34 12.01 3.29 11.84 3.29L11.84 3.29C11.61 3.29 11.39 3.38 11.23 3.54C11.07 3.7 10.98 3.92 10.98 4.15ZM5.09 13.86C4.38 13.82 4 13.71 3.75 13.61C3.41 13.48 3.17 13.32 2.92 13.07C2.67 12.82 2.51 12.58 2.38 12.24C2.28 11.99 2.17 11.61 2.13 10.9C2.1 10.15 2.09 9.92 2.09 8C2.09 6.07 2.1 5.85 2.13 5.09C2.17 4.38 2.28 4 2.38 3.75C2.51 3.41 2.67 3.17 2.92 2.92C3.17 2.67 3.41 2.51 3.75 2.38C4 2.28 4.38 2.17 5.09 2.13C5.85 2.1 6.07 2.09 8 2.09C9.92 2.09 10.15 2.1 10.91 2.13C11.61 2.17 11.99 2.28 12.24 2.38C12.58 2.51 12.82 2.67 13.07 2.92C13.32 3.17 13.48 3.41 13.61 3.75C13.71 4 13.82 4.38 13.86 5.09C13.89 5.85 13.9 6.07 13.9 8C13.9 9.92 13.89 10.15 13.86 10.9C13.82 11.61 13.71 11.99 13.61 12.24C13.48 12.58 13.32 12.82 13.07 13.07C12.82 13.32 12.58 13.48 12.24 13.61C11.99 13.71 11.61 13.82 10.91 13.86C10.15 13.89 9.92 13.9 8 13.9C6.07 13.9 5.85 13.89 5.09 13.86L5.09 13.86ZM5.03 0.84C4.26 0.87 3.74 1 3.28 1.17C2.81 1.36 2.4 1.6 2 2C1.6 2.4 1.36 2.8 1.17 3.28C1 3.74 0.87 4.26 0.84 5.03C0.8 5.79 0.8 6.04 0.8 8C0.8 9.95 0.8 10.2 0.84 10.96C0.87 11.73 1 12.25 1.17 12.71C1.36 13.18 1.6 13.59 2 13.99C2.4 14.39 2.81 14.63 3.28 14.82C3.74 15 4.26 15.12 5.03 15.15C5.79 15.19 6.04 15.2 8 15.2C9.95 15.2 10.2 15.19 10.96 15.15C11.73 15.12 12.25 15 12.71 14.82C13.19 14.63 13.59 14.39 13.99 13.99C14.39 13.59 14.63 13.18 14.82 12.71C15 12.25 15.12 11.73 15.15 10.96C15.19 10.2 15.2 9.95 15.2 8C15.2 6.04 15.19 5.79 15.15 5.03C15.12 4.26 15 3.74 14.82 3.28C14.63 2.81 14.39 2.4 13.99 2C13.59 1.6 13.19 1.36 12.71 1.17C12.25 1 11.73 0.87 10.96 0.84C10.2 0.8 9.95 0.8 8 0.8C6.04 0.8 5.8 0.8 5.03 0.84L5.03 0.84Z" fill="#FFFFFF" fill-opacity="1.000000" fill-rule="nonzero"/>
	</g>
</svg>
