<svg width="13.000000" height="16.000000" viewBox="0 0 13 16" fill="none" xmlns="http://www.w3.org/2000/svg" xmlns:xlink="http://www.w3.org/1999/xlink">
	<desc>
			Created with Pixso.
	</desc>
	<defs/>
	<path id="Vector" d="M5.02 0.05C2.36 0.34 -0.29 2.5 -0.4 5.57C-0.47 7.45 0.07 8.85 1.85 9.25C2.63 7.88 1.6 7.58 1.44 6.59C0.79 2.54 6.12 -0.23 8.9 2.6C10.83 4.56 9.56 10.59 6.45 9.96C3.47 9.37 7.91 4.57 5.53 3.63C3.6 2.86 2.57 5.97 3.49 7.51C2.95 10.16 1.79 12.67 2.26 16C3.78 14.89 4.29 12.78 4.71 10.58C5.48 11.04 5.88 11.52 6.86 11.6C10.45 11.88 12.46 8.01 11.97 4.44C11.54 1.28 8.38 -0.33 5.02 0.05Z" fill="#FFFFFF" fill-opacity="1.000000" fill-rule="nonzero"/>
</svg>
