<svg width="16.000000" height="16.000000" viewBox="0 0 16 16" fill="none" xmlns="http://www.w3.org/2000/svg" xmlns:xlink="http://www.w3.org/1999/xlink">
	<desc>
			Created with Pixso.
	</desc>
	<defs>
		<clipPath id="clip5_12063">
			<rect id="Reddit" width="16.000000" height="16.000000" fill="white" fill-opacity="0"/>
		</clipPath>
	</defs>
	<rect id="Reddit" width="16.000000" height="16.000000" fill="#FFFFFF" fill-opacity="0"/>
	<g clip-path="url(#clip5_12063)">
		<path id="Vector" d="M16 8C16 12.41 12.41 16 8 16C3.58 16 0 12.41 0 8C0 3.58 3.58 0 8 0C12.41 0 16 3.58 16 8Z" fill="#FFFFFF" fill-opacity="1.000000" fill-rule="evenodd"/>
		<path id="Vector" d="M13.33 8C13.33 8.1 13.32 8.21 13.29 8.32C13.26 8.43 13.22 8.53 13.16 8.62C13.1 8.71 13.03 8.8 12.95 8.87C12.87 8.95 12.78 9.01 12.68 9.06C12.69 9.09 12.69 9.12 12.69 9.15C12.69 9.21 12.69 9.26 12.69 9.32C12.69 9.35 12.69 9.38 12.68 9.41C12.68 11.2 10.6 12.66 8.02 12.66C5.44 12.66 3.35 11.2 3.35 9.41C3.35 9.38 3.35 9.35 3.35 9.32C3.35 9.26 3.35 9.21 3.35 9.15C3.35 9.12 3.35 9.09 3.35 9.06C3.2 8.99 3.06 8.89 2.95 8.76C2.84 8.63 2.76 8.48 2.72 8.31C2.67 8.15 2.66 7.98 2.69 7.81C2.72 7.64 2.78 7.49 2.87 7.35C2.97 7.2 3.09 7.09 3.24 7C3.38 6.91 3.54 6.86 3.71 6.84C3.88 6.82 4.05 6.84 4.21 6.89C4.37 6.94 4.52 7.03 4.64 7.15C4.87 6.99 5.11 6.85 5.36 6.73C5.61 6.61 5.87 6.51 6.13 6.43C6.39 6.34 6.66 6.28 6.94 6.24C7.21 6.19 7.49 6.17 7.76 6.16L8.36 3.39C8.36 3.35 8.37 3.32 8.39 3.3C8.41 3.27 8.44 3.25 8.46 3.23C8.49 3.21 8.52 3.2 8.55 3.19C8.59 3.19 8.62 3.19 8.65 3.2L10.61 3.59C10.81 3.25 11.22 3.1 11.59 3.24C11.96 3.38 12.17 3.77 12.08 4.16C12 4.54 11.65 4.81 11.26 4.79C10.87 4.77 10.55 4.47 10.51 4.08L8.8 3.72L8.28 6.21C8.55 6.22 8.82 6.24 9.09 6.29C9.63 6.38 10.15 6.54 10.65 6.78C10.89 6.9 11.13 7.04 11.36 7.2C11.52 7.04 11.72 6.93 11.94 6.89C12.16 6.85 12.39 6.87 12.6 6.96C12.81 7.04 12.99 7.18 13.12 7.37C13.25 7.55 13.32 7.77 13.33 8ZM5.39 9.1C5.43 9.2 5.49 9.29 5.57 9.36C5.64 9.44 5.73 9.49 5.82 9.53C5.92 9.57 6.03 9.6 6.13 9.6C6.45 9.6 6.75 9.4 6.87 9.1C6.99 8.8 6.93 8.46 6.7 8.23C6.47 8 6.12 7.93 5.82 8.06C5.53 8.18 5.33 8.47 5.33 8.8C5.33 8.9 5.35 9 5.39 9.1ZM9.97 11.02C10.01 10.98 10.04 10.93 10.04 10.87C10.04 10.81 10.02 10.76 9.98 10.72C9.94 10.68 9.88 10.65 9.83 10.65C9.77 10.65 9.71 10.67 9.67 10.71C9.55 10.79 9.42 10.87 9.29 10.93C9.15 11 9.01 11.05 8.87 11.09C8.73 11.14 8.59 11.16 8.44 11.18C8.29 11.2 8.14 11.2 8 11.2C7.85 11.2 7.7 11.2 7.55 11.18C7.41 11.16 7.26 11.13 7.12 11.09C6.98 11.04 6.84 10.99 6.71 10.92C6.58 10.86 6.45 10.78 6.33 10.69C6.29 10.66 6.24 10.64 6.18 10.64C6.13 10.64 6.08 10.67 6.04 10.71C6 10.74 5.98 10.79 5.98 10.85C5.98 10.9 5.99 10.95 6.03 11C6.17 11.1 6.32 11.19 6.47 11.28C6.63 11.36 6.79 11.42 6.96 11.47C7.13 11.53 7.3 11.56 7.48 11.59C7.65 11.61 7.83 11.62 8 11.61C8.18 11.62 8.36 11.61 8.53 11.59C8.88 11.54 9.22 11.44 9.53 11.28C9.69 11.19 9.84 11.1 9.98 11L9.97 11.02ZM9.83 9.66C9.94 9.66 10.04 9.64 10.14 9.6C10.24 9.56 10.33 9.49 10.41 9.42C10.49 9.34 10.54 9.25 10.58 9.14C10.62 9.04 10.64 8.94 10.64 8.83C10.64 8.5 10.44 8.21 10.14 8.09C9.84 7.96 9.5 8.03 9.27 8.26C9.04 8.49 8.97 8.83 9.1 9.13C9.22 9.43 9.51 9.63 9.84 9.63L9.83 9.66Z" fill="#1B6392" fill-opacity="1.000000" fill-rule="nonzero"/>
	</g>
</svg>
