<svg width="16.000000" height="13.000000" viewBox="0 0 16 13" fill="none" xmlns="http://www.w3.org/2000/svg" xmlns:xlink="http://www.w3.org/1999/xlink">
	<desc>
			Created with Pixso.
	</desc>
	<defs/>
	<path id="Vector" d="M5.03 12.5C11.06 12.5 14.37 7.49 14.37 3.15C14.37 3.01 14.36 2.87 14.36 2.73C15 2.26 15.55 1.69 16 1.03C15.41 1.29 14.77 1.46 14.11 1.54C14.79 1.14 15.31 0.49 15.55 -0.27C14.91 0.11 14.2 0.38 13.47 0.52C12.87 -0.11 12.02 -0.51 11.07 -0.51C9.26 -0.51 7.79 0.96 7.79 2.77C7.79 3.03 7.82 3.28 7.88 3.52C5.15 3.38 2.73 2.07 1.11 0.09C0.82 0.59 0.66 1.16 0.66 1.74C0.66 2.88 1.24 3.88 2.12 4.47C1.6 4.46 1.09 4.32 0.64 4.06C0.64 4.08 0.64 4.09 0.64 4.1C0.64 5.69 1.77 7.02 3.27 7.32C2.99 7.4 2.7 7.44 2.41 7.44C2.19 7.44 1.99 7.42 1.79 7.38C2.21 8.68 3.42 9.63 4.86 9.66C3.73 10.54 2.32 11.07 0.78 11.07C0.52 11.07 0.25 11.05 0 11.02C1.45 11.95 3.17 12.5 5.03 12.5L5.03 12.5Z" fill="#FFFFFF" fill-opacity="1.000000" fill-rule="nonzero"/>
</svg>
